<?xml version="1.0" encoding="UTF-8"?>
<svg version="1.1" xmlns="http://www.w3.org/2000/svg" width="512" height="512">
<path d="M0 0 C2.60527505 2.06994456 5.03382309 4.19268765 7.4140625 6.515625 C8.04828125 7.12277344 8.6825 7.72992188 9.3359375 8.35546875 C20.57266752 20.11425923 27.52754586 36.93586905 27.546875 53.1640625 C27.54905029 54.77885498 27.54905029 54.77885498 27.55126953 56.42626953 C27.54724121 57.56950684 27.54321289 58.71274414 27.5390625 59.890625 C27.54147949 61.07640137 27.54389648 62.26217773 27.54638672 63.48388672 C27.53449329 69.44725408 27.40174119 75.36348335 26.9765625 81.3125 C26.86997314 82.91279053 26.86997314 82.91279053 26.76123047 84.54541016 C26.61716103 86.55256654 26.44592581 88.55802908 26.24267578 90.56005859 C25.78473874 97.05225825 27.04208366 100.34572562 30.94262695 105.52734375 C36.01840045 112.38599637 35.366508 122.36713376 34.4140625 130.515625 C31.68406269 140.81516975 26.69012454 147.54020271 17.74609375 153.19140625 C11.91838044 156.50061029 7.11392491 157.9343664 0.4140625 157.515625 C0.35089844 158.051875 0.28773438 158.588125 0.22265625 159.140625 C-2.78441033 178.38585114 -14.71166628 196.27200247 -28.5859375 209.515625 C-30.1256392 210.61090176 -31.68546814 211.67908115 -33.2734375 212.703125 C-35.5346027 214.27852698 -36.42727908 214.9519701 -37.1796875 217.625 C-37.38582426 222.7440628 -36.28082742 227.13642887 -33.5859375 231.515625 C-15.4952533 245.26283958 7.78390155 249.94222663 29.35766602 255.2197876 C32.52147355 255.99583878 35.68242493 256.78323975 38.84350586 257.5703125 C41.10912926 258.12712431 43.37914864 258.66196214 45.65039062 259.1953125 C57.35531889 262.02895238 66.34414617 266.3973811 73.4140625 276.515625 C76.86514324 282.88281652 78.45812852 288.6168553 78.87599182 295.83343506 C78.9916449 297.7838118 78.9916449 297.7838118 79.1096344 299.77359009 C79.1910914 301.21331324 79.27246366 302.65304119 79.35375977 304.09277344 C79.44226594 305.61107158 79.53109027 307.1293512 79.62020874 308.64761353 C79.86148275 312.7767457 80.097776 316.90614869 80.33281827 321.03563976 C80.53026085 324.49820869 80.72989359 327.96065007 80.92944759 331.42309785 C81.40153322 339.61649378 81.86935037 347.81012618 82.3347168 356.00390625 C82.81163363 364.39948597 83.29636457 372.79458847 83.78497845 381.18949485 C84.2060931 388.43037415 84.62178741 395.67155198 85.03343624 402.91297555 C85.27846237 407.22197454 85.52545675 411.53083542 85.77786446 415.83940887 C86.39465202 426.39513843 86.96608022 436.95126331 87.4140625 447.515625 C87.49382891 449.3851458 87.49382891 449.3851458 87.57520676 451.29243469 C87.70034791 454.63303332 87.78436936 457.97119696 87.84741211 461.31347656 C87.8820308 462.25052303 87.91664949 463.1875695 87.95231724 464.15301132 C87.98932754 469.54677278 87.04627792 473.15869712 84.1761713 477.73366928 C78.77299856 483.19769883 73.99669612 483.97824357 66.56032801 484.05059862 C65.3987535 484.04167573 64.237179 484.03275285 63.04040527 484.02355957 C61.79387979 484.02979953 60.54735431 484.0360395 59.26305532 484.04246855 C55.81459578 484.05564066 52.36701059 484.05093092 48.91860461 484.03852367 C45.19528401 484.02946217 41.47203903 484.04344834 37.74873352 484.05444336 C30.45940257 484.07222148 23.17023646 484.06839179 15.88089907 484.0567928 C9.95624542 484.04775595 4.03163794 484.04653556 -1.89302063 484.05088806 C-2.73653632 484.05150099 -3.58005201 484.05211393 -4.44912878 484.05274543 C-6.16276293 484.05402434 -7.87639708 484.0553212 -9.59003121 484.0566358 C-25.6554043 484.06803952 -41.72068607 484.05493116 -57.78604418 484.03343433 C-71.56818326 484.01556353 -85.35018757 484.01866769 -99.13232422 484.03710938 C-115.1405584 484.05851976 -131.14871256 484.0669409 -147.15695906 484.05466032 C-148.86425748 484.05338614 -150.57155592 484.05212865 -152.27885437 484.05088806 C-153.1188581 484.05027096 -153.95886184 484.04965386 -154.82432023 484.04901806 C-160.7412422 484.04556566 -166.65811336 484.05139112 -172.57502747 484.06080627 C-179.78668518 484.07202951 -186.99816877 484.06897945 -194.20980656 484.0476833 C-197.88870395 484.03717715 -201.5673111 484.03304336 -205.24620628 484.04627991 C-209.23506143 484.06041453 -213.22344223 484.04352723 -217.21228027 484.02355957 C-218.37385478 484.03248246 -219.53542928 484.04140534 -220.73220301 484.05059862 C-227.24691868 483.98721115 -231.30154636 483.4276335 -236.5859375 479.515625 C-242.07953407 473.58832344 -241.76984433 468.58601194 -241.75561523 460.9050293 C-241.75391295 459.80173373 -241.75221067 458.69843817 -241.75045681 457.5617094 C-241.65448289 443.54180343 -240.82070602 429.55791529 -240.00343633 415.56595826 C-239.77732565 411.66914964 -239.5592726 407.77188873 -239.3401947 403.87467957 C-238.97236223 397.35034803 -238.59951551 390.82632046 -238.22290039 384.30249023 C-237.694167 375.14349517 -237.17473992 365.98398939 -236.6571027 356.82436144 C-236.25102731 349.64452643 -235.84257254 342.46482639 -235.43359375 335.28515625 C-235.39041999 334.52699938 -235.34724623 333.76884251 -235.30276418 332.98771119 C-235.05333885 328.61079382 -234.80265975 324.23395113 -234.55025673 319.85720444 C-234.43889815 317.92309329 -234.32845141 315.98892971 -234.2180481 314.05476379 C-234.01461792 310.5412274 -233.80315024 307.02833522 -233.5859375 303.515625 C-233.5089456 302.25800543 -233.4319537 301.00038586 -233.35262871 299.7046566 C-233.27162485 298.46779421 -233.19062099 297.23093182 -233.10716248 295.95658875 C-233.03577781 294.84878398 -232.96439314 293.74097921 -232.8908453 292.59960461 C-231.77765274 281.34025616 -226.59470239 273.28619783 -217.94161987 266.15237427 C-211.03211936 261.35159126 -201.90310102 259.67274092 -193.828125 257.7109375 C-191.79945346 257.20453006 -189.77080847 256.69801624 -187.7421875 256.19140625 C-184.61035386 255.41674603 -181.47788187 254.64478543 -178.34472656 253.87548828 C-161.73415822 249.78443477 -145.33316152 245.62730028 -130.2109375 237.390625 C-129.004375 236.76607422 -129.004375 236.76607422 -127.7734375 236.12890625 C-122.24585548 233.31555493 -122.24585548 233.31555493 -118.5859375 228.515625 C-118.00979492 225.24687459 -118.00979492 225.24687459 -117.8984375 221.765625 C-117.83269531 220.59515625 -117.76695312 219.4246875 -117.69921875 218.21875 C-117.66183594 217.32671875 -117.62445313 216.4346875 -117.5859375 215.515625 C-118.45798828 215.11923828 -118.45798828 215.11923828 -119.34765625 214.71484375 C-123.26381003 212.61666014 -126.33420167 209.51064484 -129.5859375 206.515625 C-130.18921875 205.96648437 -130.7925 205.41734375 -131.4140625 204.8515625 C-143.12749251 193.71852767 -151.79132728 177.1933567 -155.5859375 161.515625 C-155.5859375 160.195625 -155.5859375 158.875625 -155.5859375 157.515625 C-156.5346875 157.598125 -157.4834375 157.680625 -158.4609375 157.765625 C-166.80429527 157.73191446 -174.6372263 153.08054839 -180.5859375 147.515625 C-187.71858261 139.57428996 -190.99487291 131.08003635 -190.8671875 120.40234375 C-190.20466784 113.60231559 -188.50519672 106.75530912 -184.02246094 101.52416992 C-180.53917425 96.7042324 -181.02495136 91.94524752 -181.23828125 86.203125 C-181.25484268 85.11660645 -181.27140411 84.03008789 -181.28846741 82.91064453 C-181.34272409 79.44467469 -181.42958378 75.98073338 -181.5234375 72.515625 C-182.26488661 43.85568761 -182.26488661 43.85568761 -177.5859375 31.515625 C-177.30290771 30.76071777 -177.01987793 30.00581055 -176.72827148 29.22802734 C-173.35794149 21.10014079 -168.54240479 13.94590219 -162.5859375 7.515625 C-161.9671875 6.84273437 -161.3484375 6.16984375 -160.7109375 5.4765625 C-154.11328355 -0.99223102 -145.93472481 -5.00836965 -137.83886719 -9.28369141 C-135.78225342 -10.37974976 -133.74792149 -11.50650226 -131.71875 -12.65234375 C-122.36405466 -17.89002469 -112.71930603 -21.99044606 -102.5859375 -25.484375 C-101.54566406 -25.84789062 -100.50539062 -26.21140625 -99.43359375 -26.5859375 C-65.59885174 -36.30491037 -27.18887839 -19.61426418 0 0 Z " fill="#242021" transform="translate(333.5859375,28.484375)"/>
<path d="M0 0 C2.0703125 2.45703125 2.0703125 2.45703125 4.125 5.8125 C16.27978849 24.54846168 34.07585279 35.07827529 55.25 40.875 C76.30672591 45.22085989 98.53210616 40.76886392 116.8125 29.6875 C128.2961925 21.93515566 138.03400971 11.97279581 145 0 C150.73385274 0.49304878 156.10375565 1.40276827 161.625 3.0625 C167.67084236 4.82509147 173.73879686 6.45430257 179.8515625 7.96875 C181.24790709 8.317535 182.64422855 8.6664126 184.04052734 9.01538086 C186.13386373 9.53815472 188.22776424 10.05712599 190.32501221 10.56399536 C192.30798454 11.04385791 194.28686917 11.53823424 196.265625 12.03515625 C197.41836914 12.3175415 198.57111328 12.59992676 199.75878906 12.89086914 C204.76614709 14.60436926 208.81463961 17.35449581 212.25 21.375 C212.72953125 21.91898437 213.2090625 22.46296875 213.703125 23.0234375 C217.48442855 28.78650858 217.54399201 35.38983911 217.9921875 42.0546875 C218.11338455 43.74028275 218.11338455 43.74028275 218.23703003 45.45993042 C219.31464698 60.86161125 220.14965549 76.27945108 220.99157715 91.69543457 C221.17155907 94.97281805 221.35530265 98.2499866 221.53901863 101.52716255 C221.7173957 104.71677676 221.89360729 107.90650774 222.06914902 111.09627914 C222.15225578 112.60247073 222.23597312 114.10862877 222.32034683 115.61474991 C222.4372522 117.70806061 222.55127355 119.80150976 222.66455078 121.89501953 C222.72957794 123.07790558 222.7946051 124.26079163 222.86160278 125.47952271 C223.01246172 129.31699475 223 133.15956381 223 137 C208.48 137 193.96 137 179 137 C178.5625 120.5625 178.5625 120.5625 178.43188477 115.36938477 C178.39377609 114.01838104 178.35530819 112.66738737 178.31640625 111.31640625 C178.29993042 110.60899292 178.28345459 109.90157959 178.26647949 109.17272949 C178.45238481 105.79781012 178.45238481 105.79781012 177 103 C174 102.83333333 174 102.83333333 171 103 C169.42612099 104.57387901 169.85903987 106.14737624 169.84178162 108.33424377 C169.82712058 109.73433229 169.82712058 109.73433229 169.81216335 111.16270542 C169.8063931 112.19899554 169.80062284 113.23528566 169.79467773 114.30297852 C169.78464501 115.40335166 169.77461229 116.5037248 169.76427555 117.63744259 C169.73276186 121.21790869 169.70806655 124.7983858 169.68359375 128.37890625 C169.66520217 130.58199434 169.64636615 132.78507878 169.6270752 134.98815918 C169.5584857 143.1795627 169.49852392 151.37103662 169.4375 159.5625 C169.293125 177.856875 169.14875 196.15125 169 215 C105.31 215 41.62 215 -24 215 C-24.4375 159.5625 -24.4375 159.5625 -24.56811523 142.02954102 C-24.61134758 136.8629628 -24.61134758 136.8629628 -24.65589905 131.69639587 C-24.67517569 129.38728763 -24.69248431 127.07816247 -24.70826721 124.76902771 C-24.73248897 121.28028932 -24.76286951 117.79165485 -24.79467773 114.30297852 C-24.80044799 113.26668839 -24.80621824 112.23039827 -24.81216335 111.16270542 C-24.82193738 110.22931308 -24.83171141 109.29592073 -24.84178162 108.33424377 C-24.84823417 107.5166134 -24.85468672 106.69898302 -24.8613348 105.85657597 C-24.79814639 103.98436143 -24.79814639 103.98436143 -26 103 C-29 102.83333333 -29 102.83333333 -32 103 C-33.95277724 104.95277724 -33.25418007 108.64463623 -33.31640625 111.31640625 C-33.33505737 111.96411987 -33.3537085 112.6118335 -33.3729248 113.2791748 C-33.44140265 115.70680652 -33.50143617 118.13467048 -33.5625 120.5625 C-33.706875 125.986875 -33.85125 131.41125 -34 137 C-48.52 137 -63.04 137 -78 137 C-77.31224649 117.3886046 -76.51736529 97.78474186 -75.560606 78.18460655 C-75.34910611 73.84651667 -75.14465652 69.50832969 -74.95581055 65.16918945 C-74.76912226 60.88377173 -74.56519074 56.59948928 -74.34929848 52.31544685 C-74.27115202 50.7079574 -74.19892805 49.10016715 -74.13313866 47.49212456 C-73.65307337 35.89987003 -72.72850438 25.91351015 -63.9765625 17.47265625 C-58.72773783 13.56197067 -53.05078443 12.07771957 -46.796875 10.625 C-45.91904358 10.41439941 -45.04121216 10.20379883 -44.13677979 9.98681641 C-41.34278777 9.3176027 -38.54659357 8.65824912 -35.75 8 C-32.96809098 7.34019755 -30.18672704 6.6782299 -27.40606689 6.01318359 C-25.6815741 5.60125623 -23.95632049 5.19249502 -22.23016357 4.78759766 C-17.18604659 3.5888348 -12.26017971 2.19132555 -7.33355713 0.57275391 C-4.75166922 -0.06095091 -2.64708015 -0.26980667 0 0 Z " fill="#1B86C8" transform="translate(184,287)"/>
<path d="M0 0 C0.99 0.33 1.98 0.66 3 1 C3.96968688 3.37437349 4.78374779 5.6886503 5.5625 8.125 C7.6831864 14.23040247 10.26020542 19.57593579 13.875 24.9375 C14.26115479 25.5145166 14.64730957 26.0915332 15.04516602 26.68603516 C16.87027316 29.30290304 18.61853552 31.65281805 20.98937988 33.81059265 C25.59311311 38.1522044 27.53809192 41.34217873 27.93994141 47.72216797 C27.95211293 50.31231342 27.92030291 52.90292576 27.8515625 55.4921875 C27.84168765 56.88784912 27.83510754 58.2835375 27.83163452 59.67922974 C27.81642872 62.59317896 27.77557203 65.50513673 27.71337891 68.41845703 C27.63438121 72.12221012 27.59817175 75.82467336 27.57876015 79.5291729 C27.55864698 83.10034618 27.5190694 86.67122034 27.4765625 90.2421875 C27.46178864 91.55710175 27.44701477 92.87201599 27.43179321 94.22677612 C26.94866845 117.77934533 19.09093729 137.3119891 2.6953125 154.40234375 C-10.63295431 167.18437012 -26.56509648 173.6884656 -45.02856445 173.47094727 C-63.20802482 172.77970606 -77.56915508 163.55604767 -90 151 C-90.74121094 150.28070313 -91.48242188 149.56140625 -92.24609375 148.8203125 C-106.64366787 133.94562578 -111.79586756 113.48781032 -111.8046875 93.37890625 C-111.81827609 91.85773471 -111.83270958 90.33657051 -111.84793091 88.81541443 C-111.87304818 85.66328129 -111.87870852 82.51183631 -111.87158203 79.35961914 C-111.86543967 75.34528123 -111.92381505 71.33465319 -111.99824333 67.32110691 C-112.04655553 64.19373653 -112.05328221 61.06725699 -112.0485878 57.93955803 C-112.05260198 56.46006241 -112.07082329 54.9805258 -112.10439682 53.50140572 C-112.25965819 45.89605507 -111.96248924 40.19834216 -106.71923828 34.23803711 C-97.618263 25.45423158 -89.09185362 21.70952397 -76.50390625 21.7265625 C-74.8756445 21.70624663 -73.24738936 21.68539541 -71.61914062 21.6640625 C-69.10549313 21.64169519 -66.59211085 21.62506984 -64.07836914 21.61914062 C-42.81942026 21.53498843 -19.34537216 17.36585592 -3 2.5625 C-2.01 1.716875 -1.02 0.87125 0 0 Z " fill="#F7D6B5" transform="translate(298,73)"/>
<path d="M0 0 C1.84887695 0.00051949 3.69775445 -0.00000166 5.54663086 -0.00151062 C9.40975255 -0.00142123 13.27266413 0.0089409 17.13574219 0.02709961 C22.06822004 0.04978539 27.00039143 0.05032721 31.9329071 0.04358196 C35.74721971 0.04022808 39.56146344 0.04689873 43.37576294 0.0567112 C45.19369139 0.06053903 47.01162754 0.06172153 48.82955933 0.06012535 C51.37740473 0.05975125 53.92486863 0.07247041 56.47265625 0.08862305 C57.58110397 0.08490692 57.58110397 0.08490692 58.71194458 0.08111572 C70.69438384 0.20133486 81.42468456 4.12122773 90.25 12.359375 C98.08799027 21.02508407 102.90055977 32.55014518 102.4453125 44.25 C101.28044685 53.72344818 98.0727994 61.95591467 92.0625 69.36328125 C91.56105469 69.98847656 91.05960938 70.61367188 90.54296875 71.2578125 C83.5182072 79.10298416 72.52598386 83.92643002 62.10577393 84.63070679 C60.64775214 84.6484607 59.1895741 84.65558731 57.73144531 84.65380859 C56.52746597 84.66388443 56.52746597 84.66388443 55.29916382 84.67416382 C52.66292007 84.69305869 50.02693213 84.69706389 47.390625 84.69921875 C45.5436798 84.70565332 43.6967356 84.71238217 41.84979248 84.71939087 C37.98317097 84.73134291 34.11663866 84.7350739 30.25 84.73388672 C25.31975498 84.73368382 20.39008825 84.76096527 15.45998001 84.79543114 C11.64558335 84.81778097 7.831324 84.82172177 4.01686859 84.82066727 C2.20056926 84.82301186 0.38426549 84.83177033 -1.43196869 84.847332 C-16.44752846 84.96392926 -28.82768495 83.10027469 -40.1328125 72.2578125 C-44.3713119 67.71432883 -47.67154512 63.16277964 -49.9375 57.36328125 C-50.29199219 56.48285156 -50.64648438 55.60242188 -51.01171875 54.6953125 C-53.79863558 44.66476375 -53.24343961 32.32410362 -48.609375 23.00390625 C-42.34507942 13.10983193 -33.30069072 4.66383469 -22.01220703 1.00379944 C-14.81425777 -0.49566616 -7.31975839 -0.04070352 0 0 Z " fill="#2FA7E2" transform="translate(231.9375,363.63671875)"/>
<path d="M0 0 C12.00728967 9.12039154 20.25465341 21.99876673 22.92578125 36.9375 C23.17765233 40.48309023 23.15998583 44.00947173 23.12109375 47.5625 C23.11826385 48.55000244 23.11543396 49.53750488 23.11251831 50.55493164 C23.10139945 53.68258215 23.07631041 56.80993728 23.05078125 59.9375 C23.04074073 62.06900626 23.03161676 64.20051704 23.0234375 66.33203125 C23.00148737 71.5339535 22.96809332 76.73570564 22.92578125 81.9375 C22.31597412 81.80110107 21.70616699 81.66470215 21.07788086 81.52416992 C20.27358643 81.34474854 19.46929199 81.16532715 18.640625 80.98046875 C17.84519287 80.80281982 17.04976074 80.6251709 16.23022461 80.44213867 C14.32067641 80.02397614 12.40511815 79.63336738 10.48828125 79.25 C9.64265625 78.816875 8.79703125 78.38375 7.92578125 77.9375 C7.2410473 75.60940457 6.57724974 73.27512223 5.92578125 70.9375 C4.57453112 69.31899708 4.57453112 69.31899708 2.86328125 67.8125 C-7.88608727 57.80369341 -14.06564661 44.43035972 -17.88671875 30.46875 C-19.39782657 27.24770439 -20.86114812 26.37568581 -24.07421875 24.9375 C-28.33779352 24.72432126 -30.69268053 24.84095493 -34.0625 27.515625 C-35.51117508 28.90155144 -36.95902616 30.28833946 -38.40625 31.67578125 C-56.33145514 46.87152617 -80.18354074 48.26319018 -102.57763672 48.31835938 C-118.71668313 48.38492587 -130.06330264 51.52092399 -142.1796875 62.91796875 C-145.39536627 66.35305418 -147.32084718 69.31096958 -148.88671875 73.75 C-150.04245176 76.69509156 -150.5747956 77.68365413 -153.43359375 79.13671875 C-155.9728969 79.88896896 -158.47265999 80.45106497 -161.07421875 80.9375 C-162.55921875 81.4325 -162.55921875 81.4325 -164.07421875 81.9375 C-164.40359462 74.67108281 -164.69976221 67.40405389 -164.95849609 60.13476562 C-165.02877144 58.19314973 -165.10341087 56.25167647 -165.18603516 54.31054688 C-165.90361826 36.77943965 -161.38493198 21.3860914 -150.01171875 7.6875 C-141.1862914 -1.46098792 -129.62834921 -6.95647679 -118.51171875 -12.8125 C-117.48369141 -13.35559814 -116.45566406 -13.89869629 -115.39648438 -14.45825195 C-74.18208488 -35.7425454 -37.03164431 -24.84461016 0 0 Z " fill="#E6B06C" transform="translate(327.07421875,37.0625)"/>
<path d="M0 0 C6.67648929 4.13652054 11.99410528 9.91981584 14.5 17.4375 C14.75 20.9375 14.75 20.9375 14.5 23.4375 C15.77875 23.458125 17.0575 23.47875 18.375 23.5 C19.09429687 23.51160156 19.81359375 23.52320313 20.5546875 23.53515625 C22.58185404 23.56399242 22.58185404 23.56399242 24.5 22.4375 C25.2298193 20.32475007 25.2298193 20.32475007 25.8125 17.8125 C28.45653418 8.66909115 33.23777375 4.04825547 41.5 -0.5625 C48.12865471 -2.77205157 57.747707 -2.93382383 64.125 0.1875 C65.27309278 0.90164842 66.40180501 1.64877143 67.5 2.4375 C68.386875 3.015 69.27375 3.5925 70.1875 4.1875 C76.26962463 10.10524289 78.6522085 16.21391443 78.8125 24.625 C78.83904563 30.79391037 78.14698064 35.38203029 74.5 40.4375 C73.88125 41.345 73.2625 42.2525 72.625 43.1875 C67.72823595 48.37230899 62.20564142 51.06779564 55.1328125 51.7734375 C47.9215097 51.85374154 42.48083669 51.65755509 36.5 47.4375 C35.5925 46.81875 34.685 46.2 33.75 45.5625 C30.31445044 42.3178143 27.99438677 38.92066032 26.5 34.4375 C22.21 34.4375 17.92 34.4375 13.5 34.4375 C12.943125 35.489375 12.38625 36.54125 11.8125 37.625 C7.77970716 44.61893443 2.13256857 48.89331048 -5.5 51.4375 C-13.67308663 52.0709921 -20.63998231 52.25624413 -27.5 47.4375 C-28.8303125 46.57125 -28.8303125 46.57125 -30.1875 45.6875 C-36.47343015 39.57145986 -38.62642524 33.43613216 -38.875 24.8125 C-38.79653724 17.94344208 -37.73388036 12.92296625 -33.5 7.4375 C-24.67408901 -1.13305009 -11.84086978 -5.42028027 0 0 Z " fill="#292424" transform="translate(236.5,131.5625)"/>
<path d="M0 0 C1.84887695 0.00051949 3.69775445 -0.00000166 5.54663086 -0.00151062 C9.40975255 -0.00142123 13.27266413 0.0089409 17.13574219 0.02709961 C22.06822004 0.04978539 27.00039143 0.05032721 31.9329071 0.04358196 C35.74721971 0.04022808 39.56146344 0.04689873 43.37576294 0.0567112 C45.19369139 0.06053903 47.01162754 0.06172153 48.82955933 0.06012535 C51.37740473 0.05975125 53.92486863 0.07247041 56.47265625 0.08862305 C57.58110397 0.08490692 57.58110397 0.08490692 58.71194458 0.08111572 C70.69438384 0.20133486 81.42468456 4.12122773 90.25 12.359375 C98.08799027 21.02508407 102.90055977 32.55014518 102.4453125 44.25 C101.28044685 53.72344818 98.0727994 61.95591467 92.0625 69.36328125 C91.56105469 69.98847656 91.05960938 70.61367188 90.54296875 71.2578125 C83.5182072 79.10298416 72.52598386 83.92643002 62.10577393 84.63070679 C60.64775214 84.6484607 59.1895741 84.65558731 57.73144531 84.65380859 C56.52746597 84.66388443 56.52746597 84.66388443 55.29916382 84.67416382 C52.66292007 84.69305869 50.02693213 84.69706389 47.390625 84.69921875 C45.5436798 84.70565332 43.6967356 84.71238217 41.84979248 84.71939087 C37.98317097 84.73134291 34.11663866 84.7350739 30.25 84.73388672 C25.31975498 84.73368382 20.39008825 84.76096527 15.45998001 84.79543114 C11.64558335 84.81778097 7.831324 84.82172177 4.01686859 84.82066727 C2.20056926 84.82301186 0.38426549 84.83177033 -1.43196869 84.847332 C-16.44752846 84.96392926 -28.82768495 83.10027469 -40.1328125 72.2578125 C-44.3713119 67.71432883 -47.67154512 63.16277964 -49.9375 57.36328125 C-50.29199219 56.48285156 -50.64648438 55.60242188 -51.01171875 54.6953125 C-53.79863558 44.66476375 -53.24343961 32.32410362 -48.609375 23.00390625 C-42.34507942 13.10983193 -33.30069072 4.66383469 -22.01220703 1.00379944 C-14.81425777 -0.49566616 -7.31975839 -0.04070352 0 0 Z M-36.9375 23.36328125 C-42.37574376 32.25464298 -43.5510683 41.93264506 -41.32421875 52.1875 C-38.28536093 60.71504376 -32.68581956 67.25638194 -24.625 71.36328125 C-19.33567962 73.75468513 -14.98905784 74.51570932 -9.21240234 74.52441406 C-8.033741 74.53186142 -8.033741 74.53186142 -6.83126831 74.53945923 C-4.22864913 74.55407605 -1.62609101 74.56088372 0.9765625 74.56640625 C2.78917441 74.57216018 4.60178631 74.57791788 6.41439819 74.5836792 C10.21913944 74.59418925 14.02385956 74.60003121 17.82861328 74.60351562 C22.68731133 74.60898599 27.54572711 74.63298268 32.40433693 74.66148758 C36.15173129 74.6801823 39.89905878 74.68532329 43.64649582 74.6868515 C45.4365327 74.68986554 47.22656875 74.69785157 49.0165596 74.71103668 C63.1484351 74.80766128 72.94826226 73.57240993 83.75390625 63.83984375 C89.56704154 57.86644659 92.1352742 49.58273327 92.625 41.36328125 C92.24235848 32.89050473 88.23964087 24.12861273 82.0625 18.36328125 C74.24236559 12.93117446 67.47048545 10.06985236 57.86083984 10.04101562 C57.05993927 10.03108582 56.2590387 10.02115601 55.43386841 10.01092529 C52.79702242 9.98183524 50.16041728 9.96810198 47.5234375 9.95703125 C46.6171825 9.9513765 45.71092751 9.94572174 44.77721024 9.93989563 C39.9782521 9.90996727 35.17941328 9.89147528 30.38037109 9.8828125 C25.45106847 9.87187065 20.52287847 9.8238607 15.59392357 9.76686859 C11.77947935 9.72940039 7.96529696 9.71919322 4.15068436 9.71614075 C2.33517013 9.71013169 0.51965805 9.69422493 -1.29567337 9.66777039 C-15.34752633 9.47766309 -27.879381 11.29422326 -36.9375 23.36328125 Z " fill="#232123" transform="translate(231.9375,363.63671875)"/>
<path d="M0 0 C14.85 0 29.7 0 45 0 C45.42963625 7.38309431 45.85768608 14.76624591 46.28173828 22.1496582 C46.4263207 24.65882628 46.57181661 27.1679419 46.71826172 29.67700195 C46.92919081 33.29364672 47.13678086 36.91047046 47.34375 40.52734375 C47.40937134 41.64020248 47.47499268 42.75306122 47.54260254 43.89964294 C48.52062653 61.16699756 48.52062653 61.16699756 46.125 65 C43.24013945 67.71516287 41.76489403 68.12504459 37.91748047 68.11352539 C36.63877075 68.11334412 36.63877075 68.11334412 35.33422852 68.11315918 C34.43760498 68.10804321 33.54098145 68.10292725 32.6171875 68.09765625 C31.79355713 68.09664917 30.96992676 68.09564209 30.12133789 68.09460449 C27.03921114 68.08936519 23.9571042 68.07540396 20.875 68.0625 C13.98625 68.041875 7.0975 68.02125 0 68 C0 45.56 0 23.12 0 0 Z " fill="#F7D6B6" transform="translate(363,434)"/>
<path d="M0 0 C14.85 0 29.7 0 45 0 C45 22.44 45 44.88 45 68 C34.72875 68.061875 34.72875 68.061875 24.25 68.125 C22.0937207 68.14320801 19.93744141 68.16141602 17.71582031 68.18017578 C16.00325774 68.18601801 14.29069239 68.19111421 12.578125 68.1953125 C11.6917334 68.20554443 10.8053418 68.21577637 9.89208984 68.22631836 C8.61374268 68.22668091 8.61374268 68.22668091 7.30957031 68.22705078 C6.57232727 68.231492 5.83508423 68.23593323 5.07550049 68.24050903 C2.65903843 67.96048937 1.07281566 67.25708869 -1 66 C-3.2197172 62.83772865 -3.19947686 60.21384335 -3.046875 56.42578125 C-3.00554443 55.29809326 -2.96421387 54.17040527 -2.92163086 53.00854492 C-2.83667358 51.17900269 -2.83667358 51.17900269 -2.75 49.3125 C-2.6991626 48.05348877 -2.6483252 46.79447754 -2.59594727 45.49731445 C-1.94855345 30.31931977 -0.96768154 15.16034406 0 0 Z " fill="#F8D7B6" transform="translate(105,434)"/>
<path d="M0 0 C0.16435547 0.97839844 0.16435547 0.97839844 0.33203125 1.9765625 C2.00240173 11.1839705 4.58000309 16.26729006 12 22 C6.87045466 32.70513811 -2.23207227 38.58599307 -13 43 C-24.58521804 47.03265365 -38.95207443 46.70643325 -50.10546875 41.609375 C-58.84445167 36.75045333 -65.37301253 31.29644569 -71 23 C-70.2575 22.278125 -69.515 21.55625 -68.75 20.8125 C-67.8425 19.884375 -66.935 18.95625 -66 18 C-64.948125 16.9790625 -64.948125 16.9790625 -63.875 15.9375 C-60.9540791 11.36139059 -60.10917502 6.26858136 -59 1 C-58.31035156 1.19335938 -57.62070313 1.38671875 -56.91015625 1.5859375 C-54.9361273 2.13292495 -52.9593394 2.67001507 -50.98046875 3.19921875 C-49.26871522 3.65912632 -47.56021983 4.13265764 -45.86328125 4.64453125 C-28.22186778 9.46212746 -16.05082916 0 0 0 Z " fill="#F7D6B5" transform="translate(286,250)"/>
<path d="M0 0 C1.359375 1.6015625 1.359375 1.6015625 2.75 3.625 C12.12295553 16.41043933 25.30279342 24.3256611 41 27 C57.21202769 28.8922556 72.8000551 24.68494541 86 15 C91.43655766 10.2561893 96.37183364 5.2668328 100 -1 C103.96 0.98 107.92 2.96 112 5 C106.33684105 19.15789736 92.6884855 29.53969845 79.12109375 35.75 C62.71004187 42.32263655 42.87937345 44.24788749 26 38 C25.01257813 37.6596875 24.02515625 37.319375 23.0078125 36.96875 C15.41749708 34.1103106 9.30305524 30.05608295 3 25 C2.27941406 24.44441406 1.55882812 23.88882812 0.81640625 23.31640625 C-4.79953577 18.75140075 -9.28304709 13.20810219 -13 7 C-13 6.01 -13 5.02 -13 4 C-11.40233897 3.13372601 -9.79660056 2.28233535 -8.1875 1.4375 C-7.29417969 0.96183594 -6.40085938 0.48617188 -5.48046875 -0.00390625 C-3 -1 -3 -1 0 0 Z " fill="#2FA6E2" transform="translate(207,278)"/>
<path d="M0 0 C3.57640426 3.15064185 7.36426854 6.524679 7.828125 11.484375 C7.92592989 16.86364421 7.80536227 20.75398074 4.625 25.3125 C0.20401207 29.65096282 -2.93509249 31.47872109 -9.125 31.625 C-14.40110213 31.56188873 -17.46544031 31.12432069 -21.375 27.3125 C-25.41252672 22.21246624 -26.17233459 17.74185264 -25.9609375 11.26171875 C-24.97306851 6.28944482 -22.24048204 3.4277197 -18.375 0.3125 C-13.0201366 -3.16092491 -5.53444554 -2.76722277 0 0 Z " fill="#F5D5B4" transform="translate(233.375,141.6875)"/>
<path d="M0 0 C4.98669007 2.49334503 8.49675474 5.99350949 11 11 C11.5238576 16.25575165 11.66505372 20.64526095 9.3125 25.4375 C5.91928916 29.19754445 2.62422293 32.64472059 -2.5390625 33.34375 C-8.30762796 33.63582926 -12.12047984 33.6252122 -16.625 29.75 C-20.72381386 25.70306986 -22.29405957 22.40414639 -22.375 16.625 C-22.27484058 11.61035171 -21.44257804 8.81474864 -18 5 C-12.38670205 -0.06565912 -7.36896206 -0.82771493 0 0 Z " fill="#F6D5B5" transform="translate(294,140)"/>
<path d="M0 0 C9.54509098 2.12113133 14.68026479 4.00790481 19.9375 12.1875 C23.32180582 18.00391711 23.74694098 23.37307017 23 30 C20.49576367 38.08610888 15.40405979 43.99177586 8.03515625 48.09375 C5.22828655 49.37553405 3.10162195 50 0 50 C0 33.5 0 17 0 0 Z " fill="#F1D1B1" transform="translate(335,126)"/>
<path d="M0 0 C0 16.17 0 32.34 0 49 C-7.11303628 49 -9.65846695 47.29157522 -15 43 C-17.375 40.5 -17.375 40.5 -19 38 C-19.5775 37.175 -20.155 36.35 -20.75 35.5 C-23.11117598 28.88870727 -23.03703171 21.18630675 -20.8125 14.5 C-16.80492205 6.76122879 -8.94973774 0 0 0 Z " fill="#F6D6B5" transform="translate(176,126)"/>
<path d="M0 0 C3.0625 0.1875 3.0625 0.1875 5.0625 2.1875 C5.4765625 4.5 5.4765625 4.5 5.0625 7.1875 C3.0859375 9.6875 3.0859375 9.6875 0.4375 12.1875 C-0.47 13.05117188 -1.3775 13.91484375 -2.3125 14.8046875 C-5.12701428 17.35952933 -7.95442722 19.83244254 -10.9375 22.1875 C-9.9165625 23.2084375 -9.9165625 23.2084375 -8.875 24.25 C-2.375 30.75 -2.375 30.75 -0.5859375 32.55859375 C0.72964495 33.85858873 2.1058782 35.09711176 3.5 36.3125 C5.0625 38.1875 5.0625 38.1875 5.4375 40.8125 C5.0625 43.1875 5.0625 43.1875 3.0625 45.1875 C-0.82958189 45.34318328 -2.85685255 45.07617614 -5.89453125 42.578125 C-7.24876346 41.19985316 -8.58002036 39.79872794 -9.890625 38.37890625 C-11.86887793 36.26096752 -13.92396878 34.38246091 -16.125 32.5 C-16.77726563 31.93152344 -17.42953125 31.36304688 -18.1015625 30.77734375 C-19.25377022 29.7795809 -20.41412293 28.79106719 -21.5859375 27.81640625 C-23 26.5625 -23 26.5625 -24.9375 24.1875 C-24.88795028 20.52082056 -24.00212672 19.25760706 -21.49609375 16.5390625 C-20.46604335 15.61853518 -19.42507791 14.71011391 -18.375 13.8125 C-17.83576904 13.33570801 -17.29653809 12.85891602 -16.7409668 12.36767578 C-15.14882318 10.96355448 -13.54435862 9.57473077 -11.9375 8.1875 C-11.09960938 7.45015625 -10.26171875 6.7128125 -9.3984375 5.953125 C-8.0579216 4.77347101 -6.7135116 3.59820983 -5.36328125 2.4296875 C-2.77801693 0.17732023 -2.77801693 0.17732023 0 0 Z " fill="#232225" transform="translate(233.9375,383.8125)"/>
<path d="M0 0 C5.26233511 0.92952928 8.45188512 4.8011901 12.07421875 8.4609375 C13.46205789 9.82442858 14.85133404 11.18645886 16.2421875 12.546875 C17.14940552 13.45638916 17.14940552 13.45638916 18.07495117 14.38427734 C19.87349627 16.1538385 19.87349627 16.1538385 22.08129883 17.62719727 C23.88671875 19.0859375 23.88671875 19.0859375 24.41796875 21.96484375 C23.73427497 25.98154473 22.3499667 27.26993752 19.38671875 30.0234375 C18.47664063 30.879375 17.5665625 31.7353125 16.62890625 32.6171875 C15.72398437 33.431875 14.8190625 34.2465625 13.88671875 35.0859375 C13.12617188 35.776875 12.365625 36.4678125 11.58203125 37.1796875 C2.83039815 44.97359471 2.83039815 44.97359471 -0.73828125 45.3984375 C-3.11328125 45.0859375 -3.11328125 45.0859375 -5.11328125 43.0859375 C-5.59765625 40.3125 -5.59765625 40.3125 -5.11328125 37.0859375 C-3.22708596 34.92096492 -1.54808052 33.2595862 0.63671875 31.4609375 C1.71541695 30.53191513 2.79355293 29.60223952 3.87109375 28.671875 C5.36382812 27.39183594 5.36382812 27.39183594 6.88671875 26.0859375 C8.23538881 24.76811937 9.5758436 23.44135695 10.88671875 22.0859375 C10.40203125 21.65772705 9.91734375 21.2295166 9.41796875 20.78833008 C7.22787956 18.83909805 5.05738325 16.86926886 2.88671875 14.8984375 C2.12359375 14.22490234 1.36046875 13.55136719 0.57421875 12.85742188 C-0.14765625 12.19677734 -0.86953125 11.53613281 -1.61328125 10.85546875 C-2.28359375 10.25323486 -2.95390625 9.65100098 -3.64453125 9.03051758 C-5.11328125 7.0859375 -5.11328125 7.0859375 -5.45703125 4.4753418 C-4.9050679 0.63864767 -3.8003722 0.10490362 0 0 Z " fill="#232224" transform="translate(279.11328125,383.9140625)"/>
<path d="M0 0 C3.3517397 1.22624623 4.37803724 3.15727467 6.5625 5.9375 C11.34828512 9.16512252 15.9378644 9.96535219 21.5625 8.9375 C25.62247816 7.13306526 28.76569568 4.77857123 31.8125 1.5625 C32.39 1.02625 32.9675 0.49 33.5625 -0.0625 C36.58061422 0.11503613 37.39985215 0.77485215 39.5625 2.9375 C39.70441923 6.55644026 39.33360511 8.95809637 37.05859375 11.84765625 C31.19269999 17.42914304 24.55247933 19.91227737 16.5 20.3125 C7.59797654 19.46468824 1.72670762 16.46338307 -4.4375 9.9375 C-5.83181504 7.14886993 -5.69410094 5.01671132 -5.4375 1.9375 C-2.4375 -0.0625 -2.4375 -0.0625 0 0 Z " fill="#292424" transform="translate(239.4375,194.0625)"/>
<path d="M0 0 C2.4375 0.8125 2.4375 0.8125 4.4375 2.8125 C4.1297783 8.01800395 2.07311091 12.33102896 -0.08984375 16.984375 C-0.43882217 17.74800354 -0.7878006 18.51163208 -1.14735413 19.29840088 C-1.88279164 20.90348096 -2.62174515 22.50695418 -3.36401367 24.10888672 C-4.50100265 26.56466561 -5.62530867 29.02595962 -6.74804688 31.48828125 C-7.46540479 33.04981981 -8.18347892 34.61102959 -8.90234375 36.171875 C-9.23886459 36.90831238 -9.57538544 37.64474976 -9.92210388 38.40350342 C-12.33117169 43.58117169 -12.33117169 43.58117169 -14.5625 45.8125 C-17.5625 46.0625 -17.5625 46.0625 -20.5625 45.8125 C-21.2225 45.1525 -21.8825 44.4925 -22.5625 43.8125 C-22.27979423 38.17776004 -20.46752644 33.78679404 -18.0703125 28.796875 C-17.72370575 28.05922913 -17.377099 27.32158325 -17.01998901 26.56158447 C-16.28981479 25.01320243 -15.55504576 23.46697962 -14.81591797 21.92285156 C-13.6867303 19.56088999 -12.57482672 17.19134992 -11.46484375 14.8203125 C-10.75100879 13.31202215 -10.03619853 11.80419292 -9.3203125 10.296875 C-8.98895294 9.59060974 -8.65759338 8.88434448 -8.31619263 8.15667725 C-4.23807308 -0.31010291 -4.23807308 -0.31010291 0 0 Z " fill="#232326" transform="translate(265.5625,383.1875)"/>
<path d="M0 0 C2 3 2 3 1.8125 6.5625 C1 10 1 10 -2 12 C-4.79523674 12.34940459 -6.3648354 12.37233787 -8.8125 10.9375 C-10.67036623 7.90624457 -10.37133265 5.46577141 -10 2 C-7.71139092 -2.30797003 -4.19123206 -1.06685907 0 0 Z " fill="#2C2626" transform="translate(288,153)"/>
<path d="M0 0 C1.875 1.125 1.875 1.125 3 3 C2.66666667 9.33333333 2.66666667 9.33333333 0 12 C-3.07108055 12.3267107 -5.15050101 12.48138276 -7.875 10.9375 C-9.66235303 7.85928089 -9.43386742 5.47093932 -9 2 C-6.18112246 -1.3408919 -4.01115641 -1.4399023 0 0 Z " fill="#2B2625" transform="translate(234,152)"/>
</svg>
